<svg xmlns="http://www.w3.org/2000/svg" width="1188" height="724" fill="none" viewBox="0 0 1188 724"><mask id="prefix__a" width="1634" height="724" x="0" y="0" maskUnits="userSpaceOnUse" style="mask-type:alpha"><rect width="1633.13" height="723.325" y=".675" fill="#D9D9D9"/></mask><g stroke="#7E5BD6" stroke-miterlimit="10" stroke-opacity=".16" mask="url(#prefix__a)"><path stroke-width="3" d="M1529.09 656.75s-403.33-541.07-728.94-531.117c-325.617 9.948-79.597 599.777-728.941 612.274"/><path stroke-width="3" d="M1534.3 684.808s-408.54-553.457-734.15-543.509c-325.617 9.949-79.597 599.777-728.941 612.275"/><path stroke-width="2" d="M1534.3 703.56s-408.55-555.1-734.15-544.672c-334.479 10.716-79.597 599.777-728.941 612.275"/><path stroke-width="3" d="M1519.38 704.542s-403.29-540.079-728.937-531.117c-314.272 8.65-79.597 599.777-728.941 612.275"/><path stroke-width="4" d="M1525.23 732.29s-415-554.01-740.619-544.371c-312.379 9.249-79.597 599.777-728.941 612.275"/><path stroke-width="1.5" d="M1503.35 737.141S1110.22 201.52 784.611 211.469c-325.617 9.949-79.597 599.777-728.941 612.274"/><path stroke-width="4" d="M1567.56 814.721s-467.65-517.28-793.397-513.292c-328.497 4.025 25.983 600.414-728.944 612.275"/><path stroke-width="4" d="M1573.98 829.565s-467.66-517.617-793.393-513.292c-338.692 4.498 25.987 600.41-728.94 612.275"/><path stroke-width="3" d="M1573.98 839.933s-467.66-517.617-793.393-513.292c-338.692 4.498 25.987 600.41-728.94 612.275"/><path stroke-width="3" d="M1573.98 851.278s-467.66-517.616-793.393-513.292c-338.692 4.499 25.987 600.411-728.94 612.275"/><path stroke-width="2" d="M1578.31 861.297s-467.68-518.969-793.393-513.292c-344.854 6.011 25.987 600.41-728.94 612.275"/><path stroke-width="2" d="M1584.62 874.015s-467.66-517.976-793.396-513.292c-355.097 5.108 25.987 600.41-728.94 612.275"/><path stroke-width="2" d="M1590.57 884.553s-467.65-517.256-793.397-513.291c-362.359 4.411 25.987 600.41-728.94 612.274"/><path stroke-width="1.5" d="M1545.32 850.872s-403.77-443.173-685.053-443.196c-281.869-.023 22.438 518.419-629.396 528.662"/><path d="M1545.32 850.872S1117.6 395.725 836.36 390.77c-347.497-6.124 25.53 545.567-733.917 557.732"/><path stroke-width="1.5" d="M1550.87 863.686s-403.8-446.931-685.054-443.196c-292.441 3.885 22.437 518.42-629.396 528.662"/><path stroke-width="1.5" d="M1550.87 872.638s-403.8-446.93-685.054-443.195c-292.441 3.885 22.437 518.419-629.396 528.661"/><path stroke-width="1.5" d="M1550.87 882.434s-403.8-446.93-685.054-443.195C573.375 443.124 888.253 957.658 236.42 967.9"/><path stroke-width="1.5" d="M1554.61 891.087s-403.8-447.067-685.054-443.195c-300.163 4.128 22.438 518.419-629.396 528.661"/><path stroke-width="1.5" d="M1560.05 902.066S1156.27 456.215 875 458.87c-312.802 2.952 22.437 518.42-629.396 528.662"/><path stroke-width="2" d="M1565.18 911.169s-403.81-447.997-685.045-443.196c-282.736 4.828 22.437 518.419-629.397 528.661"/><path stroke-width="2" d="M1570.65 916.016s-403.8-446.931-685.053-443.196c-292.44 3.885 22.438 518.42-629.396 528.66"/><path stroke-width="2" d="M1570.65 924.969s-403.8-446.931-685.053-443.196c-292.44 3.885 22.438 518.417-629.396 528.657"/><path stroke-width="2" d="M1570.65 934.768s-403.8-446.931-685.053-443.195c-292.44 3.884 22.438 518.417-629.396 528.657"/><path stroke-width="1.5" d="M1574.39 943.417S1170.6 496.97 889.338 500.222c-296.311 3.425 22.437 518.418-629.397 528.658"/><path stroke-width="1.5" d="M1579.83 954.399s-403.78-445.871-685.049-443.195c-309.632 2.945 22.437 518.416-629.396 528.666"/><path stroke-width="1.5" d="M1584.97 963.499s-403.78-443.176-685.054-443.196c-321.991-.023 22.437 518.417-629.396 528.667"/></g></svg>