<svg xmlns="http://www.w3.org/2000/svg" width="1440" height="724" fill="none" viewBox="0 0 1440 724"><mask id="prefix__a" width="1634" height="724" x="-191" y="0" maskUnits="userSpaceOnUse" style="mask-type:alpha"><rect width="1633.13" height="723.325" x="-191" y=".675" fill="#D9D9D9"/></mask><g stroke="#7E5BD6" stroke-miterlimit="10" stroke-opacity=".16" mask="url(#prefix__a)"><path stroke-width="3" d="M1338.09 656.749S934.762 115.68 609.149 125.632c-325.617 9.949-79.597 599.777-728.941 612.275"/><path stroke-width="3" d="M1343.3 684.808S934.762 131.35 609.149 141.299c-325.617 9.949-79.597 599.777-728.941 612.275"/><path stroke-width="2" d="M1343.3 703.559S934.749 148.46 609.149 158.888c-334.479 10.716-79.597 599.777-728.941 612.275"/><path stroke-width="3" d="M1328.38 704.542S925.087 164.463 599.444 173.425c-314.272 8.65-79.597 599.777-728.941 612.275"/><path stroke-width="4" d="M1334.23 732.29S919.235 178.28 593.611 187.919c-312.378 9.249-79.597 599.777-728.941 612.275"/><path stroke-width="1.5" d="M1312.35 737.142S919.225 201.52 593.611 211.469c-325.617 9.949-79.597 599.777-728.941 612.275"/><path stroke-width="4" d="M1376.56 814.721s-467.654-517.28-793.398-513.292c-328.496 4.025 25.984 600.414-728.944 612.275"/><path stroke-width="4" d="M1382.98 829.565S915.325 311.948 589.588 316.273c-338.692 4.498 25.987 600.41-728.941 612.275"/><path stroke-width="3" d="M1382.98 839.933S915.325 322.316 589.588 326.641c-338.692 4.498 25.987 600.41-728.941 612.275"/><path stroke-width="3" d="M1382.98 851.278S915.325 333.662 589.588 337.987c-338.692 4.498 25.987 600.41-728.941 612.275"/><path stroke-width="2" d="M1387.31 861.297S919.634 342.328 593.917 348.005c-344.854 6.011 25.987 600.41-728.94 612.275"/><path stroke-width="2" d="M1393.62 874.015S925.957 356.039 600.223 360.723c-355.096 5.108 25.987 600.41-728.94 612.275"/><path stroke-width="2" d="M1399.57 884.553S931.915 367.297 606.172 371.262c-362.359 4.411 25.987 600.41-728.941 612.275"/><path stroke-width="1.5" d="M1354.32 850.872S950.547 407.699 669.268 407.676c-281.869-.023 22.437 518.419-629.396 528.661"/><path d="M1354.32 850.871S926.597 395.724 645.361 390.77c-347.497-6.124 25.53 545.567-733.917 557.732"/><path stroke-width="1.5" d="M1359.87 863.686S956.073 416.755 674.817 420.49c-292.441 3.885 22.437 518.42-629.396 528.662"/><path stroke-width="1.5" d="M1359.87 872.639S956.073 425.708 674.817 429.443c-292.441 3.885 22.437 518.419-629.396 528.661"/><path stroke-width="1.5" d="M1359.87 882.434S956.073 435.503 674.817 439.238c-292.441 3.885 22.437 518.42-629.396 528.662"/><path stroke-width="1.5" d="M1363.61 891.087S959.809 444.02 678.557 447.891c-300.163 4.128 22.437 518.42-629.396 528.662"/><path stroke-width="1.5" d="M1369.05 902.066S965.265 456.215 683.999 458.87c-312.801 2.952 22.438 518.42-629.396 528.662"/><path stroke-width="2" d="M1374.19 911.168S970.374 463.172 689.136 467.973C406.4 472.801 711.573 986.392 59.739 996.634"/><path stroke-width="2" d="M1379.65 916.016S975.854 469.085 694.598 472.82c-292.44 3.885 22.438 518.42-629.396 528.66"/><path stroke-width="2" d="M1379.65 924.969s-403.796-446.93-685.052-443.195c-292.44 3.884 22.438 518.416-629.396 528.666"/><path stroke-width="2" d="M1379.65 934.768S975.854 487.837 694.598 491.572c-292.44 3.885 22.438 518.418-629.396 528.658"/><path stroke-width="1.5" d="M1383.39 943.417S979.6 496.97 698.338 500.222c-296.311 3.425 22.437 518.418-629.397 528.658"/><path stroke-width="1.5" d="M1388.83 954.399S985.046 508.528 703.78 511.204c-309.632 2.945 22.437 518.416-629.396 528.666"/><path stroke-width="1.5" d="M1393.97 963.499S990.196 520.323 708.917 520.303c-321.991-.023 22.437 518.417-629.397 528.657"/></g></svg>