<svg xmlns="http://www.w3.org/2000/svg" width="1285" height="1622" fill="none" viewBox="0 0 1285 1622"><g stroke="#7E5BD6" stroke-miterlimit="10" clip-path="url(#prefix__a)" opacity=".2"><path stroke-width="3" d="M536.888-41.882S209.268 595.37 370.801 901.22c161.531 305.851 609.1-204.16 924.219 409.201"/><path stroke-width="3" d="M561.209-59.954S224.211 588.052 385.74 893.904c161.532 305.856 609.1-204.16 924.22 409.206"/><path stroke-width="2" d="M579.09-68.71S240.532 580.076 402.513 885.691c166.4 313.949 609.097-204.16 924.227 409.199"/><path stroke-width="3" d="M586.994-54.943s-326.691 636.76-166.087 943.101c154.994 295.642 609.103-204.16 924.223 409.202"/><path stroke-width="4" d="M610.723-73.474s-334.511 654.42-173.272 960.426c154.682 293.558 609.099-204.16 924.219 409.198"/><path stroke-width="1.5" d="M625.568-54.872S298.377 570.104 459.907 875.955c161.532 305.855 609.103-204.159 924.223 409.205"/><path stroke-width="4" d="M669.562-152.328S394.664 535.154 550.57 843.913c157.227 311.367 560.41-305.136 924.23 409.207"/><path stroke-width="4" d="M680.716-165.387S405.5 522.259 561.724 830.854c162.439 320.866 560.406-305.137 924.226 409.206"/><path stroke-width="3" d="M690.603-170.228s-275.216 687.645-118.991 996.24C734.05 1146.88 1132.01 520.875 1495.83 1235.22"/><path stroke-width="3" d="M701.422-175.526S426.206 512.12 582.43 820.715c162.439 320.865 560.4-305.137 924.22 409.205"/><path stroke-width="2" d="M708.954-184.332s-276.497 688.296-118.992 996.24c166.759 326.042 560.398-305.137 924.228 409.202"/><path stroke-width="2" d="M718.137-196.284S442.579 491.533 599.145 799.957c170.68 336.223 560.405-305.138 924.225 409.203"/><path stroke-width="2" d="M725.409-206.878S450.532 480.593 606.417 789.363c173.407 343.477 560.403-305.138 924.223 409.207"/><path stroke-width="1.5" d="M714.42-148S480.359 443.962 611.678 712.193c131.594 268.794 483.872-263.468 798.012 353.327"/><path d="M714.42-148s-234.296 620.392-107.7 890.884c156.422 334.226 508.32-279.093 874.54 439.416"/><path stroke-width="1.5" d="M724.048-159.275S486.415 434.463 621.306 700.918c140.258 277.05 483.874-263.468 798.014 353.322"/><path stroke-width="1.5" d="M732.585-163.456S494.952 430.283 629.844 696.737C770.101 973.788 1113.72 433.27 1427.85 1050.06"/><path stroke-width="1.5" d="M741.926-168.03S504.293 425.709 639.184 692.163c140.258 277.051 483.876-263.467 798.006 353.327"/><path stroke-width="1.5" d="M748.431-175.636S510.669 418.17 645.69 684.557c144.095 284.3 483.87-263.468 798.01 353.323"/><path stroke-width="1.5" d="M756.359-185.952S519.75 407.273 653.617 674.241c148.875 296.901 483.873-263.468 798.013 353.319"/><path stroke-width="2" d="M762.64-195.101S523.998 399.152 659.899 665.092c136.625 267.356 483.871-263.467 798.011 353.318"/><path stroke-width="2" d="M764.713-202.573S527.079 391.166 661.971 657.62c140.257 277.05 483.879-263.468 798.009 353.32"/><path stroke-width="2" d="M773.25-206.753S535.616 386.985 670.508 653.439C810.766 930.49 1154.38 389.972 1468.52 1006.76"/><path stroke-width="2" d="M782.594-211.329S544.96 382.41 679.852 648.864c140.258 277.05 483.878-263.468 798.008 353.326"/><path stroke-width="1.5" d="M789.096-218.934S551.92 374.573 686.354 641.259C827.98 922.214 1170.23 377.792 1484.36 994.581"/><path stroke-width="1.5" d="M797.026-229.252S560.398 363.983 694.284 630.941c147.389 293.882 483.876-263.467 798.006 353.322"/><path stroke-width="1.5" d="M803.305-238.398S569.241 353.565 700.563 621.795c150.329 307.053 483.877-263.468 798.007 353.322"/></g><defs><clipPath id="prefix__a"><rect width="1641.07" height="981.301" fill="#fff" transform="scale(-1 1) rotate(-63.91 151.732 1880.653)"/></clipPath></defs></svg>