<svg xmlns="http://www.w3.org/2000/svg" width="1440" height="1915" fill="none" viewBox="0 0 1440 1915">
<g stroke="#7E5BD6" stroke-miterlimit="10" clip-path="url(#prefix__a)" opacity=".05"><path stroke-width="2" d="M338.528 1088.97c32.843 91.06 233.026 165.71 360.993 117.01 127.966-48.7 266.147-265.883 165.918-363.635-100.227-97.75-606.412 26.23-526.914 246.635l.003-.01Z"/><path stroke-width="3" d="M327.02 1088.86c37.104 101.43 256.942 186.83 396.214 134.5 139.272-52.34 287.506-291.411 176.642-401.142-110.858-109.731-662.661 21.154-572.859 266.642h.003Z"/><path stroke-width="5" d="M322.843 1091.24c42.72 114.29 284.969 214.53 436.19 158.9 151.221-55.64 308.297-320.078 184.729-445.23-123.568-125.151-724.322 9.676-620.919 286.33Z"/><path stroke-width="2" d="M346.918 1083.58c28.198 80.11 208.513 142.73 325.472 97.32 116.963-45.4 246.155-240.276 156.938-325.127-89.219-84.853-550.666 33.914-482.41 227.807Z"/><path stroke-width="2" d="M356.06 1084.52c30.757 85.68 220.021 155.27 341.373 108.9 121.351-46.38 253.009-251.557 158.474-343.291-94.532-91.736-574.292 27.006-499.847 234.391Z"/><path stroke-width="2" d="M351.817 1085.22c29.694 83 217.585 148.83 335.757 103.55 118.171-45.28 246.779-244.57 155.062-333.269-91.718-88.7-562.691 28.833-490.816 229.729l-.003-.01Z"/><path stroke-width="3" d="M328.612 1091.59c37.838 103.83 263.767 190.63 407.251 136.52C879.349 1174 1032.68 928.466 918.978 816.374c-113.707-112.094-681.949 23.91-590.366 275.216Z"/><path stroke-width="4" d="M330.629 1095.1c39.03 106.76 270.596 196.56 417.36 141.37 146.762-55.18 303.081-306.978 186.344-422.444C817.601 698.561 236.159 836.69 330.629 1095.1Z"/><path stroke-width="3" d="M298.128 1080.02c45.212 120.96 301.594 227.04 461.633 168.16C919.8 1189.3 1086.04 909.437 955.265 776.987s-766.572 10.242-657.137 303.033Z"/><path stroke-width="3" d="M282.216 1075.27c46.755 124.75 310.35 234.72 474.56 174.49 164.21-60.24 334.194-348.123 199.534-484.931-134.664-136.807-787.27 8.509-674.097 310.441h.003Z"/><path stroke-width="3" d="M275.466 1063.26c48.735 128.99 318.971 244.39 486.344 183.53 167.373-60.87 338.93-356.448 200.254-498.546-138.67-142.098-804.556 2.799-686.598 315.016Z"/><path stroke-width="2" d="M261.734 1059.07c49.919 132.37 327.78 250.4 500.104 187.6 172.325-62.79 349.362-366.599 206.927-512.269-142.437-145.667-827.855 4.283-707.026 324.669h-.005Z"/><path stroke-width="2" d="M247.694 1054.79c51.1 135.84 337.02 256.4 514.674 191.48 177.655-64.91 360.742-377.391 214.382-526.664-146.362-149.276-852.741 6.405-729.056 335.184Z"/><path stroke-width="2" d="M246.642 1052.87c52.063 138.32 343.055 261.21 523.795 195.2 180.737-66 366.883-384.059 217.882-536.109-149.002-152.05-867.689 6.103-741.677 340.909Z"/><path stroke-width="2" d="M237.626 1054.15c53.396 142.16 353.143 267.97 539.601 199.72 186.458-68.25 378.993-395.743 225.693-551.833-153.31-156.092-894.534 8.007-765.294 352.113Z"/><path stroke-width="5" d="M231.792 1043.45c58.611 156.04 387.628 294.14 592.296 219.23 204.672-74.91 416.002-434.392 247.732-605.726-168.277-171.332-981.887 8.789-840.028 386.496Z"/><path stroke-width="4" d="M214.959 1044.43c60.882 162.1 402.66 305.54 615.262 227.73 212.599-77.82 432.139-451.235 257.339-629.209-174.804-177.977-1019.963 9.133-872.601 401.479Z"/><path stroke-width="3" d="M210.916 1037.2c61.881 164.76 409.263 310.56 625.352 231.47 216.092-79.1 439.222-458.641 261.552-639.534C920.155 448.241 61.134 638.419 210.913 1037.2h.003Z"/><path stroke-width="4" d="M232.848 1045.38c57.67 153.54 381.4 289.41 582.776 215.7 201.376-73.7 409.316-427.404 243.746-595.984-165.567-168.577-966.102 8.651-826.522 380.284Z"/><path stroke-width="3" d="M234.134 1047.73c56.519 150.49 373.8 283.65 571.166 211.41 197.37-72.24 401.16-418.893 238.89-584.114-162.27-165.219-946.858 8.482-810.056 372.704Z"/><path stroke-width="3" d="M188.699 1030.44c63.907 170.16 422.67 320.73 645.839 239.05 223.172-81.68 453.612-473.66 270.122-660.485C921.172 422.184 34.012 618.59 188.699 1030.44Z"/><path stroke-width="2" d="M165.591 1023.41c66.017 175.77 436.614 331.31 667.147 246.93 230.532-84.38 468.582-489.285 279.032-682.27-189.539-192.988-1105.972 9.903-946.182 435.34h.003Z"/><path stroke-width="2" d="M159.644 1012.74c69.241 183.21 452.964 347.22 690.575 260.84 237.611-86.38 481.061-506.115 284.131-707.98-196.935-201.864-1142.302 3.673-974.706 447.14Z"/><path stroke-width="2" d="M127.906 1003.27c72.108 190.88 472.076 361.6 719.83 271.49 247.754-90.11 501.744-527.58 296.524-737.836C939.037 326.668-46.62 541.25 127.906 1003.27Z"/><path stroke-width="2" d="M125.904 999.587c73.91 195.653 483.876 370.643 737.824 278.283 253.952-92.37 514.282-540.77 303.932-756.282C957.31 306.075-52.989 526.022 125.904 999.587Z"/><path stroke-width="3" d="M123.654 995.462c75.929 201.008 497.102 380.778 757.993 285.888 260.883-94.89 528.343-555.55 312.243-776.955C977.791 282.991-60.125 508.952 123.654 995.462Z"/><path stroke-width="3" d="M123.718 995.426c75.105 201.464 503.296 377.274 771.084 278.494 267.788-98.79 546.828-565.989 328.728-786.26-218.1-220.277-1281.596 20.13-1099.812 507.766Z"/><path stroke-width="4" d="M120.913 990.272c77.602 208.168 520.023 389.818 796.715 287.748s565.002-584.798 339.652-812.393C1031.93 238.029-66.915 486.425 120.913 990.272Z"/><path stroke-width="2" d="M101.059 1005.77c81.292 217.43 541.946 408.22 829.433 302.49 287.488-105.73 585.988-608.615 350.968-846.73-235.01-238.12-1377.169 17.98-1180.401 544.24Z"/><path stroke-width="2" d="M77.441 1020.2c83.019 222.03 553.431 416.86 847.006 308.89 293.573-107.96 598.403-621.504 358.403-864.668-240-243.16-1406.349 18.364-1205.409 555.778Z"/><path stroke-width="2" d="M55.941 1039.7c84.782 226.74 565.182 425.71 864.992 315.45 299.807-110.26 611.107-634.704 366.017-883.028C1041.86 223.799-149.265 490.877 55.941 1039.7Z"/><path stroke-width="4" d="M319.065 1084.52c43.815 116.67 289.88 219.89 442.971 163.85 153.088-56.05 311.204-324.882 185.365-452.977-125.836-128.098-734.389 6.703-628.336 289.127Z"/><path stroke-width="2" d="M126.916 1001.45c72.997 193.24 477.908 366.07 728.721 274.84 250.813-91.22 507.943-534.09 300.183-746.941C948.065 316.496-49.767 533.73 126.918 1001.45h-.002Z"/><path stroke-width="2" d="M126.33 1000.37c73.524 194.64 481.364 368.72 733.987 276.84 252.633-91.89 511.613-537.959 302.353-752.353C953.415 310.462-51.632 529.266 126.33 1000.37Z"/><path stroke-width="2" d="M124.799 997.562c74.902 198.278 490.367 375.618 747.716 282.008 257.355-93.6 521.185-548.015 308.015-766.415C967.357 294.752-56.488 517.648 124.802 997.564l-.003-.002Z"/></g><defs><clipPath id="prefix__a"><rect width="1490.18" height="1225.66" fill="#fff" transform="rotate(-43.521 1174.367 791.16)"/></clipPath></defs></svg>