<svg xmlns="http://www.w3.org/2000/svg" width="1111" height="677" fill="none" viewBox="0 0 1111 677"><g opacity=".5"><mask id="prefix__b" width="1131" height="677" x="0" y="0" maskUnits="userSpaceOnUse" style="mask-type:alpha"><g stroke="#7E5BD6" stroke-miterlimit="10" clip-path="url(#prefix__a)"><path stroke-width="3" d="M1085.83 287.377S790.697 683.567 552.429 676.28c-238.271-7.285-58.245-439.178-533.403-448.33"/><path stroke-width="3" d="M1089.65 266.832S790.697 672.093 552.429 664.808c-238.271-7.285-58.245-439.178-533.403-448.329"/><path stroke-width="2" d="M1089.65 253.101S790.687 659.565 552.429 651.929c-244.756-7.846-58.245-439.178-533.403-448.33"/><path stroke-width="3" d="M1078.73 252.381S783.617 647.847 545.327 641.284c-229.969-6.333-58.245-439.178-533.403-448.329"/><path stroke-width="4" d="M1083.01 232.063S779.334 637.73 541.059 630.672c-228.584-6.773-58.245-439.179-533.403-448.33"/><path stroke-width="1.5" d="M1066.99 228.511S779.327 620.713 541.059 613.428c-238.271-7.285-58.245-439.178-533.403-448.33"/><path stroke-width="4" d="M1113.98 171.705s-342.204 378.771-580.567 375.85C293.035 544.608 552.426 107.911.007 99.225"/><path stroke-width="4" d="M1118.68 160.836S776.473 539.853 538.115 536.687C290.277 533.393 557.131 97.045 4.712 88.357"/><path stroke-width="3" d="M1118.68 153.244s-342.207 379.017-580.565 375.85C290.277 525.801 557.131 89.452 4.712 80.764"/><path stroke-width="3" d="M1118.68 144.936S776.473 523.954 538.115 520.787C290.277 517.493 557.131 81.145 4.712 72.457"/><path stroke-width="2" d="M1121.85 137.6S779.627 517.608 541.283 513.451C288.935 509.05 560.299 73.809 7.88 65.121"/><path stroke-width="2" d="M1126.47 128.288s-342.216 379.281-580.572 375.85c-259.843-3.74 19.016-439.642-533.404-448.33"/><path stroke-width="2" d="M1130.82 120.571S788.614 499.325 550.251 496.422C285.094 493.191 569.267 56.78 16.848 48.092"/><path stroke-width="1.5" d="M1097.71 145.234S802.247 469.741 596.421 469.758c-206.258.017 16.419-379.605-460.561-387.105"/><path d="M1097.71 145.234S784.722 478.509 578.927 482.137C324.646 486.621 597.609 82.653 41.883 73.745"/><path stroke-width="1.5" d="M1101.77 135.851S806.291 463.109 600.482 460.375C386.488 457.53 616.9 80.769 139.92 73.269"/><path stroke-width="1.5" d="M1101.77 129.295S806.291 456.554 600.482 453.819C386.488 450.974 616.9 74.214 139.92 66.714"/><path stroke-width="1.5" d="M1101.77 122.123S806.291 449.381 600.482 446.647C386.488 443.802 616.9 67.041 139.92 59.541"/><path stroke-width="1.5" d="M1104.5 115.787S809.025 443.146 603.218 440.311c-219.644-3.023 16.419-379.606-460.561-387.105"/><path stroke-width="1.5" d="M1108.49 107.748S813.017 434.216 607.201 432.272C378.308 430.11 623.62 52.666 146.64 45.166"/><path stroke-width="2" d="M1112.25 101.082s-295.494 328.04-501.291 324.524c-206.892-3.535 16.419-379.605-460.561-387.105"/><path stroke-width="2" d="M1116.24 97.532S820.766 424.791 614.957 422.056c-213.994-2.845 16.418-379.605-460.562-387.105"/><path stroke-width="2" d="M1116.24 90.977S820.766 418.236 614.957 415.501c-213.994-2.845 16.418-379.605-460.562-387.105"/><path stroke-width="2" d="M1116.24 83.802S820.766 411.06 614.957 408.326C400.963 405.481 631.375 28.72 154.395 21.221"/><path stroke-width="1.5" d="M1118.98 77.468S823.507 404.373 617.693 401.992c-216.825-2.508 16.419-379.605-460.561-387.105"/><path stroke-width="1.5" d="M1122.96 69.427S827.492 395.91 621.676 393.95C395.102 391.794 638.094 14.345 161.114 6.846"/><path stroke-width="1.5" d="M1126.72 62.764s-295.46 324.51-501.286 324.524C389.817 387.305 641.852 7.683 164.873.183"/></g></mask><g mask="url(#prefix__b)"><rect width="1466.28" height="483.611" x="-182.32" y="282.75" fill="url(#prefix__c)"/></g></g><defs><linearGradient id="prefix__c" x1="550.822" x2="550.822" y1="282.75" y2="766.361" gradientUnits="userSpaceOnUse"><stop stop-color="#7E5BD6"/><stop offset="1" stop-color="#7E5BD6" stop-opacity="0"/></linearGradient><clipPath id="prefix__a"><rect width="1131" height="676.746" fill="#fff"/></clipPath></defs></svg>