<svg width="91" height="35" viewBox="0 0 91 35" xmlns="http://www.w3.org/2000/svg"><path d="M77.2799 18.8161C77.2088 18.7855 77.1935 18.7739 77.176 18.7729C75.5537 18.678 75.546 18.6759 75.1503 20.1705C73.9292 24.7778 72.7058 29.3851 71.5088 33.9987C71.3907 34.4541 71.218 34.6069 70.7195 34.6006C68.5177 34.5711 66.3148 34.5774 64.112 34.5964C63.6354 34.6006 63.2287 34.51 62.8406 34.2391C62.4295 33.9513 61.9988 33.6846 61.5539 33.4475C61.2346 33.2778 61.2029 33.0828 61.2893 32.7634C62.4918 28.2773 63.6769 23.787 64.8816 19.302C64.9691 18.9784 64.9505 18.8119 64.6083 18.6538C64.1863 18.4598 63.807 18.1805 63.4178 17.9433C63.3686 17.9823 63.3227 18.0002 63.3216 18.0213C63.2768 18.6285 62.9193 18.756 62.3355 18.7318C61.2456 18.6864 60.1512 18.7254 59.0602 18.7149C58.7716 18.7117 58.589 18.7623 58.5092 19.0733C57.897 21.4481 57.2717 23.8186 56.6103 26.3421C57.2673 26.1186 57.8555 25.9763 58.3879 25.7223C58.8897 25.4819 59.2942 25.4883 59.7249 25.8287C59.9621 26.0164 60.2223 26.1998 60.5044 26.3083C61.2532 26.5971 61.3953 27.1084 61.3341 27.8378C61.1931 29.4969 61.1483 31.1633 61.0357 32.8245C61.0236 33.0069 60.8739 33.2746 60.7154 33.3399C58.0676 34.4351 55.3345 35.1529 52.4145 34.9727C51.4164 34.9116 50.4893 34.6185 49.6344 34.1284C48.7916 33.6456 47.9487 33.1587 47.1364 32.6306C46.0213 31.9043 45.6944 30.7881 45.6321 29.5717C45.5523 28.0222 46.0476 26.5624 46.4313 25.0877C46.944 23.1209 47.4753 21.1582 47.9957 19.1934C48.0263 19.0764 48.0394 18.9552 48.0602 18.8403C47.542 18.5294 47.0391 18.2269 46.487 17.8959C46.3952 18.2079 46.3187 18.4714 46.229 18.7781C44.7237 18.7781 43.215 18.7939 41.7075 18.7687C41.2844 18.7613 41.1204 18.8846 41.0154 19.2862C39.7145 24.235 38.3862 29.1764 37.0831 34.1252C36.9727 34.5426 36.7901 34.6628 36.3463 34.6575C34.1445 34.6322 31.9417 34.6575 29.7388 34.6333C29.401 34.6291 29.0643 34.4604 28.7309 34.355C28.6303 34.3234 28.5418 34.2507 28.4521 34.1916C27.9296 33.8501 27.1599 33.6056 26.9566 33.1355C26.7653 32.6928 27.1643 32.0087 27.3163 31.4342C28.4182 27.2844 29.5246 23.1356 30.6287 18.9868C30.6418 18.9384 30.6386 18.8846 30.6418 18.8382C30.1291 18.5315 29.6251 18.23 29.061 17.8927C27.6114 23.4961 26.1706 29.0615 24.7209 34.6628C23.3019 34.6628 21.884 34.6628 20.4661 34.6628C19.9742 34.6628 19.4767 34.6122 18.9924 34.6723C17.4849 34.8578 16.184 34.4615 15.0022 33.5518C14.6917 33.3125 14.6185 33.146 14.7147 32.7897C15.8735 28.4913 17.0279 24.1928 18.1507 19.886C18.3463 19.1334 18.3923 18.3439 18.5071 17.5712C18.4513 17.5343 18.3955 17.4985 18.3398 17.4616C17.9025 17.6482 17.4477 17.8042 17.0312 18.0266C15.9347 18.6116 15.0536 19.4295 14.2632 20.3666C13.4859 21.2889 13.3787 22.422 13.0847 23.4908C12.0658 27.1916 11.0884 30.9019 10.0816 34.6628C9.8673 34.6628 9.65303 34.6628 9.43766 34.6628C7.23482 34.6628 5.03306 34.6533 2.83022 34.6702C2.37434 34.6733 1.98515 34.5911 1.61236 34.3297C1.08543 33.9608 0.263325 33.7331 0.0599856 33.2514C-0.141168 32.775 0.2513 32.055 0.412004 31.449C2.14367 24.9286 3.88736 18.4103 5.60482 11.8856C5.71524 11.4651 5.8978 11.3776 6.30558 11.3818C8.27119 11.4008 10.2368 11.3797 12.2024 11.3987C12.6189 11.4029 13.0344 11.5125 13.5996 11.5958C14.7693 10.7504 16.1927 9.99151 17.7986 9.59202C19.7719 9.10083 21.7572 8.80253 23.7611 9.40545C24.2563 9.55407 24.7231 9.81021 25.1768 10.0611C25.7289 10.3646 26.2405 10.7367 26.7915 11.0403C27.9733 11.6928 28.7681 12.6161 29.1277 13.9316C29.3595 13.0651 29.5902 12.1998 29.8307 11.3017C30.5358 11.3017 31.2311 11.2522 31.9133 11.3165C32.5211 11.3734 32.6884 11.1246 32.8512 10.6113C33.3093 9.15985 33.74 7.68417 34.3905 6.30968C35.405 4.16467 36.9596 2.41599 39.1132 1.21647C41.7228 -0.238127 44.4613 -0.272911 47.2818 0.506038C49.055 0.996175 50.5855 1.92058 52.0997 2.94724C51.0862 4.9257 50.0837 6.88309 49.1348 8.73507C48.2777 8.50634 47.4895 8.25126 46.6794 8.09209C45.5501 7.87074 44.6023 8.23439 44.0163 9.19569C43.6326 9.82602 43.3954 10.5386 43.0412 11.3302C44.5619 11.3333 45.9568 11.0793 46.9768 12.2451C47.2756 11.6344 47.7617 11.3291 48.4352 11.3291C48.8353 11.3291 49.2376 11.3091 49.6366 11.3344C49.9908 11.3565 50.1362 11.2342 50.2248 10.8938C50.9747 8.02885 51.7487 5.16919 52.5151 2.30848C52.5238 2.27475 52.5424 2.24418 52.5883 2.14194H53.1404C55.3607 2.14194 57.5822 2.15142 59.8025 2.13456C60.2573 2.1314 60.653 2.20202 61.0204 2.47186C61.3232 2.69426 61.6621 2.86924 61.9802 3.07267C62.8646 3.63975 62.7684 3.32775 62.4907 4.37759C61.9168 6.54579 61.3188 8.70872 60.7328 10.8738C60.6979 11.0034 60.6913 11.1394 60.6585 11.3618C61.8807 11.171 62.9696 11.3713 63.9732 12.3284C63.9021 11.269 64.5274 11.3576 65.1189 11.3881C65.2818 11.3966 65.4468 11.3892 65.6097 11.3892C67.0375 11.3892 67.0145 11.3839 67.3501 10.0632C68.4947 5.55181 71.2825 2.36961 75.8139 0.763228C79.4335 -0.518507 82.9723 -0.147478 86.2717 1.81307C87.8022 2.72272 89.2715 3.72619 90.7659 4.68959C90.8381 4.73597 90.896 4.80449 91.0031 4.90146C89.4671 6.86833 87.9399 8.82256 86.3405 10.8706C85.4747 10.2624 84.4416 9.81126 83.8305 9.04707C82.8072 7.76639 79.8533 7.74215 78.7546 8.92691C78.1271 9.60361 77.6232 10.3299 77.4843 11.3259C77.7379 11.3259 77.9511 11.3259 78.1643 11.3259C80.9487 11.3259 83.7343 11.3354 86.5187 11.3175C87.0172 11.3144 87.4359 11.4145 87.8361 11.7001C88.2449 11.99 88.6768 12.2567 89.125 12.4865C89.454 12.6551 89.4748 12.8638 89.3928 13.1695C87.5278 20.1442 85.6638 27.12 83.8163 34.0999C83.7157 34.4804 83.5528 34.5953 83.156 34.5922C80.881 34.5753 78.6049 34.5974 76.3299 34.57C75.9735 34.5658 75.6018 34.4193 75.2705 34.2707C74.9109 34.1094 74.5862 33.8744 74.2538 33.6593C73.3847 33.0975 73.4591 33.4032 73.7356 32.346C74.8956 27.9042 76.0741 23.4666 77.2449 19.0269C77.2624 18.9605 77.269 18.892 77.2821 18.8129L77.2799 18.8161ZM84.1093 8.27866C84.7411 7.46809 85.3326 6.71339 85.9196 5.95552C86.5133 5.19027 87.1025 4.42186 87.6896 3.65978C86.1776 2.33167 83.5779 1.12477 81.7304 0.87285C76.3124 0.135009 71.0551 2.94513 68.9036 7.81277C68.3668 9.02704 68.0574 10.3351 67.6759 11.6095C67.5731 11.9531 67.4365 12.0944 67.0495 12.0754C66.3957 12.0416 65.7387 12.0501 65.085 12.0796C64.9319 12.087 64.6881 12.2261 64.6542 12.3484C64.2651 13.7376 63.9076 15.1353 63.5195 16.6215H66.2799C64.874 21.9403 63.4921 27.1705 62.1016 32.4324H68.4598C69.8503 27.1758 71.2431 21.9161 72.6315 16.669H78.5983C77.2045 21.9424 75.8226 27.1716 74.4331 32.4335H80.7913C82.6115 25.6685 84.4307 18.9067 86.2749 12.0511H73.857C74.1631 10.9644 74.4014 9.95778 74.7349 8.98172C75.065 8.01515 75.6564 7.19193 76.5485 6.61325C77.9632 5.69517 79.4696 5.81322 80.9892 6.31074C82.1808 6.70074 83.1658 7.4175 84.1093 8.27866ZM15.4712 32.5484C17.4849 32.5484 19.4122 32.5389 21.3396 32.5568C21.72 32.5599 21.8622 32.4524 21.9573 32.0888C23.0997 27.7334 24.2673 23.3844 25.4228 19.0322C25.8962 17.2498 26.3302 15.4631 26.1902 13.5953C26.0514 11.7275 25.0292 10.4258 23.1401 10.0442C22.2 9.85448 21.1865 9.8587 20.2234 9.94618C17.5057 10.1928 15.0809 11.1499 13.1076 13.0156C12.4539 13.6333 11.8756 14.3237 11.1661 15.0858C11.4503 14.0349 11.7006 13.1147 11.9575 12.166H6.31323C4.50285 18.9584 2.69575 25.736 0.880997 32.5462H7.25012C7.29822 32.4155 7.3507 32.3038 7.38131 32.1868C8.37177 28.4618 9.3994 24.7452 10.3297 21.0054C10.6511 19.712 11.2546 18.6274 12.1893 17.6893C13.3164 16.5583 14.5977 15.6644 16.2331 15.3419C17.6062 15.071 18.7661 15.7414 18.9564 17.0737C19.0755 17.9054 19.0548 18.7992 18.87 19.6182C18.4054 21.6842 17.8129 23.7227 17.2706 25.7729C16.6792 28.0064 16.0856 30.24 15.4723 32.5494L15.4712 32.5484ZM44.6581 12.0575H39.4806C39.9189 10.664 40.2305 9.31059 40.7717 8.04888C41.5085 6.33182 42.7416 5.75525 44.6624 6.03563C45.2856 6.12628 45.8934 6.31074 46.5712 6.46568C47.3244 5.00265 48.0963 3.50483 48.8932 1.95537C46.3285 0.882336 43.766 0.347929 41.0778 1.25336C38.2201 2.21572 36.237 4.14676 35.029 6.75871C34.3402 8.24915 33.8876 9.8471 33.411 11.4198C33.2503 11.951 33.0382 12.1207 32.4927 12.0754C31.9329 12.029 31.3645 12.0459 30.8015 12.0775C30.6473 12.0859 30.4024 12.2198 30.3685 12.341C29.9706 13.7555 29.6055 15.1785 29.2119 16.6774H31.9832C30.5708 21.9751 29.1791 27.1969 27.7787 32.4493C27.9405 32.4725 28.0268 32.4957 28.1143 32.4957C29.9892 32.4978 31.863 32.4872 33.7379 32.5072C34.1183 32.5115 34.1828 32.307 34.2539 32.0403C34.8726 29.7034 35.4958 27.3666 36.1178 25.0298C36.8579 22.2555 37.598 19.4822 38.3513 16.6626C38.5623 16.6626 38.759 16.6626 38.9558 16.6626C40.3027 16.6626 41.6495 16.6595 42.9964 16.6647C43.2445 16.6647 43.4522 16.6711 43.5299 16.3654C43.8884 14.9603 44.2634 13.5584 44.6581 12.0554V12.0575ZM58.1987 26.5771C57.6117 26.7637 57.1033 26.9492 56.5819 27.0862C54.8327 27.5437 53.065 27.0978 53.71 24.605C54.3681 22.0615 55.0492 19.5223 55.7062 16.9789C55.7871 16.6669 55.9653 16.6236 56.2506 16.6268C57.451 16.6373 58.6524 16.6405 59.8539 16.6205C60.0277 16.6173 60.3174 16.5014 60.3524 16.3823C60.7755 14.9572 61.1614 13.5205 61.5735 12.0258H57.0749C57.897 8.94904 58.7038 5.93127 59.5128 2.90613C59.3893 2.87451 59.3379 2.85026 59.2865 2.85026C57.3581 2.8471 55.4285 2.85237 53.5001 2.83867C53.1568 2.83656 53.0901 3.00416 53.0191 3.27189C52.2768 6.06514 51.5148 8.85418 50.7768 11.6495C50.6981 11.9489 50.5768 12.049 50.2663 12.0395C49.6115 12.0206 48.9555 12.0469 48.3018 12.0279C47.9957 12.0195 47.8459 12.1049 47.7814 12.4127C47.6633 12.9766 47.5005 13.531 47.3474 14.0876C47.1211 14.9066 46.8861 15.7235 46.6292 16.6342H49.3327C49.3097 16.7965 49.3065 16.884 49.2846 16.9662C48.7019 19.1861 48.0952 21.4006 47.5387 23.6257C47.1014 25.3734 46.6313 27.1221 46.3482 28.896C46.0366 30.8482 47.0151 32.1742 48.9927 32.6411C49.7929 32.8298 50.6446 32.8772 51.4732 32.8825C53.3525 32.8941 55.1104 32.3154 56.8825 31.7873C57.6806 31.5491 58.0599 31.2192 58.0391 30.357C58.0096 29.1195 58.1364 27.8799 58.1998 26.5771H58.1987Z" fill="black" /></svg>