<svg xmlns="http://www.w3.org/2000/svg" width="188" height="163" fill="none" viewBox="0 0 188 163"><path fill="#7E5BD6" d="M86.815 163H0V96.082c0-24.636 5.122-44.079 15.367-58.328C25.612 23.504 43.175 10.92 68.055 0l18.76 35.557c-15.3 7.19-25.878 14.382-31.732 21.573-5.854 7.058-9.114 15.448-9.78 25.17h41.512V163ZM188 163h-86.815V96.082c0-24.636 5.122-44.079 15.367-58.328C126.797 23.504 144.36 10.92 169.24 0L188 35.557c-15.301 7.19-25.878 14.382-31.732 21.573-5.855 7.058-9.114 15.448-9.78 25.17H188V163Z"/></svg>