<svg width="1440" height="704" viewBox="0 0 1440 704" fill="none" xmlns="http://www.w3.org/2000/svg">
<path fill-rule="evenodd" clip-rule="evenodd" d="M769.528 638.069C742.722 651.459 710.28 658.585 669.415 657.237C587.603 654.539 503.138 621.326 422.374 572.867C341.628 524.418 264.718 460.812 198.042 397.507C131.371 334.206 74.9664 271.239 35.2277 224.095C15.3592 200.524 -0.34062 180.91 -11.0722 167.192C-16.4378 160.333 -20.5612 154.947 -23.3423 151.278C-24.733 149.443 -25.788 148.037 -26.4949 147.091C-26.8484 146.618 -27.1148 146.259 -27.2927 146.019L-27.4929 145.749L-27.5427 145.682L-27.5551 145.665C-27.5578 145.661 -27.559 145.66 -28.8652 146.396C-30.1716 147.132 -30.1699 147.134 -30.1669 147.138L-30.154 147.155L-29.8999 147.499C-29.7203 147.741 -29.452 148.102 -29.0967 148.577C-28.3861 149.529 -27.3273 150.94 -25.9328 152.779C-23.1436 156.459 -19.0117 161.856 -13.6369 168.727C-2.88754 182.468 12.8335 202.108 32.7262 225.708C72.5098 272.906 128.987 335.954 195.756 399.348C262.52 462.736 339.607 526.502 420.615 575.108C501.604 623.702 586.648 657.227 669.298 659.953C710.665 661.318 743.695 654.103 771.069 640.429C798.428 626.763 820.033 606.696 838.648 582.494C857.255 558.301 872.914 529.925 888.352 499.599C893.188 490.099 898 480.412 902.875 470.598C913.583 449.045 924.592 426.882 936.815 404.765C972.37 340.429 1018.03 276.797 1095.57 230.974C1173.09 185.159 1282.67 157.037 1446.28 164.055L1446.44 161.34C1282.34 154.302 1172.04 182.496 1093.83 228.721C1015.62 274.938 969.668 339.073 934.017 403.582C921.767 425.749 910.714 447.998 899.994 469.577C895.125 479.377 890.325 489.04 885.513 498.493C870.087 528.797 854.518 556.991 836.069 580.977C817.627 604.953 796.347 624.672 769.528 638.069Z" fill="url(#paint0_angular_993_12161)" fill-opacity="0.16"/>
<path fill-rule="evenodd" clip-rule="evenodd" d="M770.602 624.256C743.796 637.646 711.354 644.772 670.489 643.424C588.686 640.726 503.949 606.817 422.77 557.303C341.611 507.801 264.15 442.791 196.923 378.08C129.701 313.375 72.7453 249.003 32.5935 200.805C12.5186 176.707 -3.3534 156.655 -14.2054 142.629C-19.6314 135.616 -23.8023 130.11 -26.6158 126.358C-28.0226 124.482 -29.0899 123.045 -29.8052 122.077C-30.163 121.593 -30.4326 121.226 -30.6124 120.981L-30.8151 120.705L-30.878 120.619C-30.8808 120.615 -30.882 120.613 -32.1922 121.344C-33.5023 122.075 -33.5008 122.077 -33.4978 122.081L-33.4329 122.17L-33.2277 122.45C-33.0459 122.697 -32.7744 123.066 -32.4152 123.552C-31.6962 124.525 -30.6249 125.967 -29.2144 127.848C-26.3931 131.611 -22.2141 137.128 -16.7793 144.152C-5.90968 158.201 9.98313 178.279 30.0818 202.406C70.2776 250.657 127.304 315.11 194.623 379.908C261.936 444.701 339.572 509.871 420.992 559.532C502.391 609.18 587.714 643.414 670.372 646.14C711.739 647.505 744.77 640.29 772.143 626.617C799.502 612.95 821.107 592.883 839.722 568.681C858.33 544.489 873.988 516.113 889.426 485.786C894.262 476.287 899.074 466.599 903.949 456.786C914.657 435.232 925.667 413.069 937.889 390.952C973.444 326.616 1019.1 262.985 1096.64 217.161C1174.16 171.346 1283.74 143.225 1447.36 150.242L1447.51 147.528C1283.41 140.489 1173.12 168.683 1094.9 214.909C1016.7 261.126 970.742 325.26 935.091 389.769C922.841 411.936 911.788 434.185 901.068 455.764C896.2 465.565 891.399 475.227 886.587 484.681C871.161 514.985 855.592 543.179 837.143 567.164C818.702 591.141 797.421 610.86 770.602 624.256Z" fill="url(#paint1_angular_993_12161)" fill-opacity="0.16"/>
<path fill-rule="evenodd" clip-rule="evenodd" d="M774.66 609.096C747.145 622.546 713.759 629.702 671.681 628.368C589.732 625.77 504.901 591.797 423.692 542.184C342.497 492.58 265.017 427.402 197.786 362.523C130.56 297.648 73.6041 233.095 33.4539 184.758C13.3796 160.591 -2.49229 140.479 -13.3444 126.411C-18.7706 119.377 -22.9417 113.853 -25.7558 110.089C-27.1628 108.207 -28.2306 106.765 -28.9464 105.794C-29.1895 105.464 -29.3921 105.188 -29.5535 104.968L-29.7542 104.694L-29.9573 104.416L-30.0205 104.329C-30.0233 104.326 -30.0245 104.324 -30.8988 104.81C-31.7731 105.296 -31.7714 105.298 -31.7684 105.302L-31.7555 105.32L-31.4993 105.671C-31.3178 105.919 -31.0468 106.288 -30.6878 106.775C-29.9695 107.75 -28.8994 109.196 -27.4897 111.081C-24.6706 114.852 -20.4938 120.383 -15.062 127.424C-4.19807 141.508 11.6875 161.637 31.7778 185.823C71.9571 234.195 128.96 298.803 196.251 363.74C263.538 428.674 341.135 493.959 422.505 543.67C503.861 593.372 589.084 627.563 671.606 630.179C714.008 631.523 747.779 624.311 775.671 610.678C803.556 597.048 825.494 577.034 844.293 552.864C863.088 528.7 878.767 500.352 894.116 470.029C899.315 459.758 904.475 449.264 909.705 438.626C919.929 417.831 930.422 396.487 942.009 375.188C977.02 310.83 1021.89 247.131 1098.83 201.255C1175.76 155.385 1284.9 127.26 1448.6 134.281L1448.7 132.471C1284.68 125.436 1175.07 153.609 1097.66 199.758C1020.27 245.9 975.21 309.94 940.138 374.409C928.536 395.738 918.013 417.141 907.778 437.957C902.553 448.586 897.402 459.061 892.222 469.295C876.882 499.6 861.264 527.823 842.58 551.845C823.902 575.859 802.183 595.643 774.66 609.096Z" fill="url(#paint2_angular_993_12161)" fill-opacity="0.16"/>
<path fill-rule="evenodd" clip-rule="evenodd" d="M779.277 596.659C753.261 610.012 721.907 617.091 682.494 615.686C600.69 612.77 516.228 579.448 435.464 530.947C354.72 482.458 277.809 418.878 211.13 355.627C144.457 292.382 88.0484 229.496 48.3067 182.42C28.4368 158.883 12.7355 139.301 2.00317 125.604C-3.36313 118.756 -7.48679 113.38 -10.2683 109.716C-11.6591 107.885 -12.7141 106.481 -13.4211 105.537C-13.7746 105.064 -14.0412 104.706 -14.219 104.467L-14.4192 104.197L-14.469 104.13L-14.4814 104.113C-14.4841 104.109 -14.4854 104.108 -15.7909 104.845C-17.0963 105.582 -17.0949 105.584 -17.0919 105.588L-17.0788 105.605L-17.0277 105.675L-16.8248 105.948C-16.6451 106.19 -16.3769 106.55 -16.0215 107.025C-15.3109 107.975 -14.2518 109.383 -12.8571 111.22C-10.0679 114.894 -5.93553 120.281 -0.560339 127.141C10.1901 140.86 25.9124 160.469 45.8067 184.035C85.5932 231.164 142.074 294.131 208.845 357.47C275.611 420.803 352.7 484.541 433.705 533.188C514.692 581.823 599.729 615.456 682.367 618.402C722.305 619.825 754.262 612.65 780.85 599.003C807.42 585.365 828.525 565.316 846.865 541.131C865.198 516.953 880.811 488.582 896.359 458.254C900.709 449.769 905.054 441.133 909.452 432.39C920.791 409.848 932.488 386.595 945.562 363.396C981.834 299.035 1028.57 235.355 1107.01 189.491C1185.44 143.636 1295.74 115.486 1459.36 122.504L1459.51 119.789C1295.41 112.751 1184.4 140.974 1105.29 187.232C1026.18 233.481 979.148 297.654 942.774 362.195C929.668 385.45 917.929 408.787 906.58 431.348C902.189 440.079 897.855 448.693 893.524 457.142C877.983 487.454 862.457 515.65 844.275 539.628C826.098 563.599 805.309 583.297 779.277 596.659Z" fill="url(#paint3_angular_993_12161)" fill-opacity="0.16"/>
<path fill-rule="evenodd" clip-rule="evenodd" d="M785.349 583.659C759.555 597.006 728.477 604.128 689.387 602.806C607.728 600.044 522.685 566.082 440.935 516.467C359.213 466.871 280.973 401.75 212.951 336.925C144.937 272.108 87.1845 207.63 46.4336 159.354C26.0595 135.217 9.93793 115.133 -1.08789 101.087C-6.60087 94.0632 -10.8397 88.5492 -13.6994 84.7924C-15.1293 82.9141 -16.2142 81.4751 -16.9412 80.5064C-17.3046 80.0221 -17.5787 79.6554 -17.7614 79.4101L-17.967 79.1338L-18.0308 79.0478C-18.0336 79.0442 -18.0347 79.0425 -19.7738 80.0275C-21.5127 81.0124 -21.5111 81.0147 -21.5081 81.0189L-21.4946 81.037L-21.2326 81.3892C-21.0474 81.6377 -20.7711 82.0076 -20.4052 82.4951C-19.6734 83.4702 -18.5835 84.9157 -17.1485 86.8008C-14.2787 90.571 -10.0288 96.0993 -4.50401 103.138C6.54533 117.214 22.6942 137.332 43.1 161.506C83.9093 209.852 141.756 274.436 209.898 339.375C278.033 404.308 356.505 469.639 438.572 519.445C520.61 569.234 606.431 603.627 689.227 606.427C729.021 607.773 760.904 600.519 787.459 586.778C813.989 573.05 835.066 552.915 853.387 528.68C871.701 504.455 887.32 476.054 902.888 445.73C907.143 437.442 911.393 429.012 915.695 420.481C927.152 397.757 938.971 374.316 952.202 350.93C988.573 286.64 1035.43 223.102 1113.91 177.351C1192.37 131.612 1302.67 103.515 1466.21 110.529L1466.41 106.909C1302.23 99.8673 1190.99 128.063 1111.61 174.336C1032.26 220.598 984.996 284.792 948.488 349.323C935.214 372.787 923.338 396.34 911.868 419.087C907.575 427.602 903.339 436.004 899.108 444.246C883.55 474.55 868.045 502.72 849.931 526.681C831.824 550.633 811.166 570.3 785.349 583.659Z" fill="url(#paint4_angular_993_12161)" fill-opacity="0.16"/>
<path fill-rule="evenodd" clip-rule="evenodd" d="M791.485 563.918C764.537 577.379 731.948 584.527 690.957 583.174C608.935 580.469 524.944 547.516 445.055 499.531C365.174 451.551 289.459 388.583 224.001 325.934C158.545 263.288 103.361 200.978 64.5404 154.328C45.1306 131.004 29.8126 111.596 19.3478 98.0202C14.1153 91.2322 10.0964 85.9023 7.38581 82.27C6.03052 80.4539 5.00248 79.0621 4.31329 78.1247C3.96882 77.656 3.709 77.3009 3.53538 77.0631L3.34003 76.7949L3.29117 76.7276L3.27901 76.7109C3.27624 76.7072 3.27503 76.7054 2.61882 77.0692C1.96261 77.433 1.96405 77.435 1.9668 77.4389L1.97929 77.4561L2.22562 77.7943C2.40012 78.0333 2.66082 78.3897 3.00629 78.8597C3.69724 79.7996 4.72729 81.194 6.08445 83.0128C8.79902 86.6505 12.8223 91.986 18.0593 98.7799C28.5332 112.368 43.862 131.789 63.284 155.128C102.127 201.805 157.348 264.157 222.854 326.851C288.357 389.542 364.161 452.591 444.175 500.651C524.18 548.705 608.459 581.813 690.899 584.533C732.14 585.893 765.024 578.701 792.255 565.098C819.48 551.499 841.003 531.519 859.575 507.373C878.143 483.232 893.779 454.902 909.214 424.581C914.044 415.093 918.853 405.413 923.726 395.603C934.437 374.042 945.457 351.858 957.687 329.727C993.266 265.348 1039 201.591 1116.7 155.669C1194.4 109.752 1304.15 81.612 1467.89 88.6349L1467.97 87.2775C1303.99 80.2442 1193.88 108.42 1115.83 154.543C1037.8 200.662 991.915 264.67 956.289 329.136C944.045 351.291 933.003 373.519 922.286 395.091C917.416 404.895 912.613 414.563 907.794 424.028C892.365 454.338 876.774 482.577 858.285 506.615C839.8 530.647 818.439 550.453 791.485 563.918Z" fill="url(#paint5_angular_993_12161)" fill-opacity="0.16"/>
<defs>
<radialGradient id="paint0_angular_993_12161" cx="0" cy="0" r="1" gradientUnits="userSpaceOnUse" gradientTransform="translate(689.841 388.706) rotate(94.4685) scale(272.156 736.641)">
<stop offset="0.796875" stop-color="#7E5BD6"/>
<stop offset="1" stop-color="#7E5BD6" stop-opacity="0.37"/>
</radialGradient>
<radialGradient id="paint1_angular_993_12161" cx="0" cy="0" r="1" gradientUnits="userSpaceOnUse" gradientTransform="translate(688.286 374.735) rotate(94.4685) scale(272.154 739.275)">
<stop offset="0.796875" stop-color="#7E5BD6"/>
<stop offset="1" stop-color="#7E5BD6" stop-opacity="0.37"/>
</radialGradient>
<radialGradient id="paint2_angular_993_12161" cx="0" cy="0" r="1" gradientUnits="userSpaceOnUse" gradientTransform="translate(689.701 359.244) rotate(94.4685) scale(271.706 739.062)">
<stop offset="0.796875" stop-color="#7E5BD6"/>
<stop offset="1" stop-color="#7E5BD6" stop-opacity="0.37"/>
</radialGradient>
<radialGradient id="paint3_angular_993_12161" cx="0" cy="0" r="1" gradientUnits="userSpaceOnUse" gradientTransform="translate(702.917 347.144) rotate(94.4685) scale(272.144 736.64)">
<stop offset="0.796875" stop-color="#7E5BD6"/>
<stop offset="1" stop-color="#7E5BD6" stop-opacity="0.37"/>
</radialGradient>
<radialGradient id="paint4_angular_993_12161" cx="0" cy="0" r="1" gradientUnits="userSpaceOnUse" gradientTransform="translate(703.705 334.359) rotate(94.4685) scale(272.604 742.748)">
<stop offset="0.796875" stop-color="#7E5BD6"/>
<stop offset="1" stop-color="#7E5BD6" stop-opacity="0.37"/>
</radialGradient>
<radialGradient id="paint5_angular_993_12161" cx="0" cy="0" r="1" gradientUnits="userSpaceOnUse" gradientTransform="translate(716.858 314.291) rotate(94.4685) scale(271.476 731.172)">
<stop offset="0.796875" stop-color="#7E5BD6"/>
<stop offset="1" stop-color="#7E5BD6" stop-opacity="0.37"/>
</radialGradient>
</defs>
</svg>
